<svg width="48" height="48" viewBox="0 0 48 48" fill="none" xmlns="http://www.w3.org/2000/svg">
<g id="Frame 117">
<rect x="1" y="1" width="46" height="46" rx="7" fill="#B53B1B"/>
<rect x="1" y="1" width="46" height="46" rx="7" stroke="white" stroke-width="2"/>
<path id="Vector" d="M24 23.6C23.2422 23.6 22.5155 23.3893 21.9797 23.0142C21.4439 22.6391 21.1429 22.1304 21.1429 21.6C21.1429 21.0696 21.4439 20.5609 21.9797 20.1858C22.5155 19.8107 23.2422 19.6 24 19.6C24.7578 19.6 25.4845 19.8107 26.0203 20.1858C26.5561 20.5609 26.8571 21.0696 26.8571 21.6C26.8571 21.8626 26.7832 22.1227 26.6397 22.3654C26.4961 22.608 26.2856 22.8285 26.0203 23.0142C25.755 23.1999 25.44 23.3472 25.0934 23.4478C24.7467 23.5483 24.3752 23.6 24 23.6ZM24 16C21.8783 16 19.8434 16.59 18.3431 17.6402C16.8429 18.6904 16 20.1148 16 21.6C16 25.8 24 32 24 32C24 32 32 25.8 32 21.6C32 20.1148 31.1571 18.6904 29.6569 17.6402C28.1566 16.59 26.1217 16 24 16Z" fill="white"/>
</g>
</svg>
