<svg width="48" height="48" viewBox="0 0 48 48" fill="none" xmlns="http://www.w3.org/2000/svg">
<g id="Frame 119">
<rect x="1" y="1" width="46" height="46" rx="7" fill="#B53B1B"/>
<rect x="1" y="1" width="46" height="46" rx="7" stroke="white" stroke-width="2"/>
<path id="Vector" d="M31.0667 32C29.1556 32 27.2927 31.5739 25.4782 30.7218C23.6631 29.8702 22.0557 28.7443 20.656 27.344C19.2557 25.9443 18.1298 24.3369 17.2782 22.5218C16.4261 20.7073 16 18.8444 16 16.9333C16 16.6667 16.0889 16.4444 16.2667 16.2667C16.4444 16.0889 16.6667 16 16.9333 16H20.5333C20.7407 16 20.9259 16.0667 21.0889 16.2C21.2519 16.3333 21.3481 16.5037 21.3778 16.7111L21.9556 19.8222C21.9852 20.0296 21.9816 20.2184 21.9449 20.3884C21.9076 20.5591 21.8222 20.7111 21.6889 20.8444L19.5556 23.0222C20.1778 24.0889 20.9556 25.0889 21.8889 26.0222C22.8222 26.9556 23.8519 27.763 24.9778 28.4444L27.0667 26.3556C27.2 26.2222 27.3742 26.1221 27.5893 26.0551C27.8039 25.9887 28.0148 25.9704 28.2222 26L31.2889 26.6222C31.4963 26.6667 31.6667 26.7665 31.8 26.9218C31.9333 27.0776 32 27.2593 32 27.4667V31.0667C32 31.3333 31.9111 31.5556 31.7333 31.7333C31.5556 31.9111 31.3333 32 31.0667 32Z" fill="white"/>
</g>
</svg>
